<?xml version="1.0" encoding="UTF-8" standalone="no"?>
<!-- Created with Inkscape (http://www.inkscape.org/) -->

<svg
   xmlns:dc="http://purl.org/dc/elements/1.1/"
   xmlns:cc="http://creativecommons.org/ns#"
   xmlns:rdf="http://www.w3.org/1999/02/22-rdf-syntax-ns#"
   xmlns:svg="http://www.w3.org/2000/svg"
   xmlns="http://www.w3.org/2000/svg"
   xmlns:sodipodi="http://sodipodi.sourceforge.net/DTD/sodipodi-0.dtd"
   xmlns:inkscape="http://www.inkscape.org/namespaces/inkscape"
   version="1.1"
   id="svg3713"
   width="953.60913"
   height="442.8688"
   viewBox="0 0 953.60913 442.86881"
   sodipodi:docname="logo-white.svg"
   inkscape:version="0.92.4 (5da689c313, 2019-01-14)"
   inkscape:export-filename="C:\Users\Mitchell\Desktop\glacier\logo-full.png"
   inkscape:export-xdpi="103.08626"
   inkscape:export-ydpi="103.08626">
  <metadata
     id="metadata3719">
    <rdf:RDF>
      <cc:Work
         rdf:about="">
        <dc:format>image/svg+xml</dc:format>
        <dc:type
           rdf:resource="http://purl.org/dc/dcmitype/StillImage" />
        <dc:title></dc:title>
      </cc:Work>
    </rdf:RDF>
  </metadata>
  <defs
     id="defs3717" />
  <sodipodi:namedview
     pagecolor="#ffffff"
     bordercolor="#666666"
     borderopacity="1"
     objecttolerance="10"
     gridtolerance="10"
     guidetolerance="10"
     inkscape:pageopacity="0"
     inkscape:pageshadow="2"
     inkscape:window-width="1920"
     inkscape:window-height="1001"
     id="namedview3715"
     showgrid="false"
     fit-margin-top="0"
     fit-margin-left="0"
     fit-margin-right="0"
     fit-margin-bottom="0"
     inkscape:zoom="1.1593797"
     inkscape:cx="469.85375"
     inkscape:cy="149.7493"
     inkscape:window-x="-9"
     inkscape:window-y="-9"
     inkscape:window-maximized="1"
     inkscape:current-layer="svg3713" />
  <path
     inkscape:connector-curvature="0"
     id="path5157"
     d="m 361.80245,441.7414 -0.7312,-1.12977 0.25417,-9.71592 0.25417,-9.71594 h -1.35247 -1.3525 l -3.42072,2.93584 -3.42073,2.93584 -0.4519,0.45344 -0.45191,0.45344 -3.79197,2.94043 -3.79199,2.9404 -2.19461,-0.99993 -2.19461,-0.99993 -1.85537,-3.30118 -1.85537,-3.30118 0.98876,-1.80264 0.98876,-1.80262 10.62712,-10.8457 10.62711,-10.84569 1.90146,-2.43587 1.90146,-2.43586 -0.25252,-12.02506 -0.25254,-12.02507 -2.0833,-0.29533 -2.08332,-0.29532 -1.26788,1.05224 -1.26789,1.05224 -9.99403,4.88023 -9.99404,4.88022 -1.00229,2.49713 -1.00226,2.49714 -0.67596,1.80761 -0.67593,1.80761 -2.86731,9.03809 -2.86729,9.03808 -0.75072,1.80761 -0.75073,1.80762 -0.99697,2.48546 -0.99698,2.48548 h -5.33155 -5.33156 l -1.12081,-1.35051 -1.12085,-1.35053 0.63106,-2.49066 0.63105,-2.49067 0.47458,-3.39493 0.47461,-3.39495 0.80832,-0.49958 0.80834,-0.49958 v -3.10999 -3.10999 h -0.74748 -0.74745 l -8.63576,4.51904 -8.63576,4.51904 h -1.35181 -1.35181 l -1.18801,-1.43146 -1.18801,-1.43149 0.90414,-1.43336 0.90415,-1.43335 7.32199,-3.7353 7.32202,-3.73528 1.44852,-1.20217 1.44852,-1.20216 -1.02563,-1.23579 -1.02561,-1.23579 h -2.09551 -2.09553 l -0.55857,-0.90382 -0.55859,-0.9038 h -1.76654 -1.76654 l -1.56941,-0.79749 -1.56939,-0.7975 -2.70264,-0.80285 -2.70265,-0.80284 -0.31995,-1.66137 -0.31994,-1.66137 1.51569,-3.96875 1.51568,-3.96876 h 2.65327 2.6533 l 6.53598,1.6798 6.53599,1.67982 5.42285,1.14163 5.42284,1.14161 3.16333,0.78877 3.16333,0.78876 2.72577,0.005 2.72577,0.005 5.86041,-3.38977 5.8604,-3.38978 4.06714,-2.07046 4.06714,-2.07043 2.25951,-1.83702 2.25953,-1.83703 -1.14591,-0.46581 -1.14589,-0.46582 -1.16633,-1.16635 -1.16633,-1.16633 -7.17777,-3.86005 -7.17775,-3.86007 -3.47648,-1.7347 -3.4765,-1.73469 -1.49444,0.6293 -1.49446,0.62934 -9.03807,1.65097 -9.03809,1.65099 -4.06712,0.96123 -4.06714,0.96124 -4.8233,0.74818 -4.82328,0.74818 -2.28545,-4.82697 -2.28548,-4.82696 2.13782,-1.78088 2.1378,-1.78087 1.74745,-0.0301 1.74743,-0.03 5.48303,-1.92181 5.48302,-1.92179 1.16805,-0.93208 1.16807,-0.93209 -0.71617,-0.68303 -0.71615,-0.68304 -4.97094,-2.82638 -4.97094,-2.82639 -3.90469,-1.76606 -3.90469,-1.76607 0.28946,-1.94617 0.28945,-1.94615 1.57198,-0.98538 1.57198,-0.98537 2.49516,1.59773 2.49515,1.59776 6.98446,3.5884 6.98444,3.58841 h 0.47196 0.47198 l -0.0263,-2.03356 -0.0263,-2.03358 -1.755,-6.32665 -1.75497,-6.32666 -0.0263,-1.62777 -0.0263,-1.62778 3.13428,-1.30959 3.13432,-1.3096 h 2.60036 2.60037 l 1.38464,1.58166 1.38465,1.58167 1.12591,3.61523 1.12591,3.61524 0.79286,1.5694 0.79285,1.5694 v 1.76653 1.76654 l 0.90381,0.55859 0.90381,0.55857 v 1.76656 1.76653 l 0.79285,1.5694 0.79287,1.5694 1.0745,3.61522 1.0745,3.61524 0.96083,1.96638 0.96082,1.96639 10.95489,5.40023 10.95489,5.40021 1.47152,0.47108 1.47153,0.4711 1.01394,-1.01395 1.01389,-1.01466 v -11.50177 -11.50123 l -8.48696,-9.33155 -8.48698,-9.33152 -5.07013,-4.94007 -5.07017,-4.94007 v -1.15803 -1.15804 l 3.26849,-3.61783 3.26851,-3.61784 h 1.18065 1.18063 l 4.70207,4.29309 4.70208,4.29309 2.96545,1.71088 2.96545,1.71088 1.25204,-0.48046 1.25207,-0.48046 -0.74829,-9.35279 -0.74826,-9.35278 1.56132,-1.14166 1.56133,-1.14168 h 1.99007 1.99008 l 0.5486,1.42964 0.5486,1.42963 v 9.81462 9.81464 l 0.79676,0.49242 0.79674,0.49241 7.56348,-6.76086 7.56347,-6.76089 1.51123,-0.004 1.51124,-0.004 3.23375,3.77791 3.23377,3.77791 v 0.8879 0.88791 l -10.33249,10.47296 -10.33248,10.47297 -3.23923,4.06714 -3.23921,4.06713 0.11048,11.03007 0.1105,11.03007 1.11974,1.53134 1.11976,1.53135 11.21169,-5.66326 11.21169,-5.66328 2.03357,-1.85878 2.03357,-1.85881 v -1.31685 -1.31685 l 2.74301,-8.24154 2.74299,-8.24154 0.87223,-1.5694 0.87224,-1.5694 v -1.76654 -1.76654 l 0.78706,-0.48643 0.78708,-0.48644 0.52321,-2.61612 0.52322,-2.61608 1.37283,-0.52681 1.37283,-0.5268 4.56217,0.54032 4.56215,0.54033 0.502,2.00003 0.50198,2.00006 -1.01697,4.87682 -1.01696,4.87681 -0.75795,4.06714 -0.75794,4.06713 0.21812,0.24043 0.21816,0.24042 7.59258,-4.21152 7.59256,-4.21155 2.81689,-1.18758 2.81689,-1.18756 1.67756,1.22665 1.67752,1.22664 -1.16304,2.12442 -1.16305,2.12441 -8.07639,3.94667 -8.07635,3.94667 v 1.08282 1.08285 l 2.93737,1.39052 2.93738,1.39054 4.97094,1.20639 4.97094,1.20637 1.12977,0.84447 1.12975,0.84449 v 3.01012 3.01014 l -1.04889,2.30205 -1.04887,2.30204 h -3.24455 -3.24454 l -6.32632,-1.38695 -6.32632,-1.38695 -3.16332,-0.49272 -3.16332,-0.49273 -1.80762,-0.71683 -1.80762,-0.71685 -5.26361,-0.98497 -5.26359,-0.98501 -9.35987,4.84288 -9.35986,4.84285 -3.24001,2.47126 -3.23997,2.47124 1.04156,1.25502 1.04158,1.25502 3.26476,1.51994 3.26477,1.51994 5.87475,3.56933 5.87476,3.56933 2.82911,1.1876 2.82912,1.1876 5.75707,-1.35889 5.75705,-1.35892 3.16332,-0.78367 3.16333,-0.78367 8.13427,-1.90052 8.13428,-1.90055 1.92961,0.008 1.92962,0.008 1.31453,2.03357 1.31454,2.03356 0.55418,2.83607 0.55418,2.83609 -1.61,1.457 -1.60996,1.45701 h -1.90907 -1.90906 l -0.55857,0.90382 -0.55858,0.90379 h -2.02544 -2.02541 l -0.85862,0.82727 -0.85862,0.8273 -2.25951,0.30246 -2.25952,0.3025 v 1.80761 1.80763 l 8.58617,4.51903 8.58618,4.51904 v 1.70911 1.70912 l -1.39119,0.87752 -1.39116,0.87753 -8.69077,-4.11563 -8.69076,-4.11563 -0.59115,-0.95648 -0.59113,-0.95649 h -0.93769 -0.93771 l 0.4684,4.29309 0.46838,4.29309 1.0633,5.82198 1.06329,5.82197 -1.61719,1.18254 -1.61722,1.18253 h -4.18518 -4.18519 l -1.88261,-4.29309 -1.88263,-4.29309 -1.11513,-3.61522 -1.11516,-3.61524 -0.71925,-1.80761 -0.71925,-1.80761 -1.92626,-5.87537 -1.92626,-5.87476 -1.01177,-2.06075 -1.01178,-2.06077 -12.02469,-5.94785 -12.02472,-5.94787 -1.36512,0.52385 -1.36513,0.52386 v 12.30511 12.30514 l 10.13537,10.54438 10.13539,10.54439 1.46297,1.3557 1.46299,1.35572 1.6065,2.47888 1.60648,2.47889 -0.55855,2.22546 -0.55856,2.22546 -3.12516,2.38367 -3.12517,2.38368 -6.77444,-5.5356 -6.77442,-5.53559 -0.54051,-0.87458 -0.54051,-0.87457 h -1.75419 -1.75427 v 9.42544 9.42541 l -1.42028,1.42028 -1.42027,1.42026 h -1.68971 -1.68974 z m -338.077493,-35.62112 -1.12976,-0.45587 v -34.17269 -34.17268 l 1.429632,-0.54861 1.429633,-0.5486 4.219167,0.0138 4.219167,0.0138 1.090466,0.69307 1.090467,0.69308 0.134487,33.20452 0.134475,33.20453 -1.109673,1.33706 -1.109649,1.33709 -4.634331,-0.0714 -4.634321,-0.0712 z m 86.991513,-1.31424 -2.71143,-2.11578 -1.08227,-1.03698 -1.08226,-1.03697 -1.85511,-3.30288 -1.85511,-3.30287 v -22.84268 -22.84266 l 2.69273,-4.24599 2.69275,-4.24601 2.92661,-1.77978 2.92663,-1.77979 4.07385,-0.61091 4.07386,-0.61092 4.08986,1.04653 4.08986,1.04652 4.29308,4.57246 4.29309,4.57247 v 6.65097 6.65095 l -1.42027,1.42028 -1.42028,1.42025 h -3.37793 -3.37792 l -1.67361,-1.22375 -1.67358,-1.22376 0.0674,-4.42504 0.0675,-4.42505 -0.93676,-1.12974 -0.93673,-1.12977 h -3.17897 -3.17898 l -1.20066,1.58167 -1.20065,1.58166 -0.0287,19.20592 -0.0288,19.20591 1.80763,1.80761 1.80761,1.80763 h 1.23383 1.23381 l 2.47205,-1.94452 2.47204,-1.94449 -0.60128,-5.61457 -0.60127,-5.61456 1.47901,-1.47902 1.47901,-1.479 h 4.80968 4.80969 l 0.54861,1.42963 0.5486,1.42964 v 7.94228 7.94228 l -3.70511,4.6534 -3.70506,4.65339 -1.83278,0.98086 -1.83276,0.98087 -6.8895,0.46004 -6.88951,0.46004 z m 93.24284,1.31028 -0.60254,-0.60255 v -34.59263 -34.59262 l 0.67786,-0.37778 0.67785,-0.37776 12.80649,0.55038 12.8065,0.55038 0.5904,0.59295 0.5904,0.59295 0.16023,4.2247 0.16021,4.2247 -1.75439,1.28306 -1.75442,1.28304 h -5.06934 -5.06934 l -1.08457,1.08457 -1.08457,1.08457 v 4.60942 4.60942 l 1.08457,1.08456 1.08457,1.08457 h 5.20113 5.20114 l 0.59343,3.16334 0.59344,3.16332 -0.57707,3.07606 -0.57707,3.07607 -1.40505,0.53917 -1.40503,0.53917 h -3.96142 -3.96141 l -0.93562,1.74819 -0.93561,1.74821 v 5.7534 5.7534 l 1.08457,1.08457 1.08457,1.08457 h 5.58334 5.58331 l 1.05821,1.27508 1.05821,1.27505 0.51564,3.17759 0.51565,3.17758 -2.32591,2.32591 -2.32592,2.32592 H 216.2018 204.56184 Z m 285.89032,-0.77034 -1.13941,-1.37289 1.06665,-6.98734 1.06667,-6.98735 0.79996,-4.51904 0.79999,-4.51904 1.04648,-7.68237 1.04651,-7.68236 0.82702,-3.7895 0.82702,-3.7895 v -3.4413 -3.44131 l 1.24585,-5.95447 1.24584,-5.95449 0.96229,-1.79808 0.96229,-1.79808 9.25054,0.0706 9.25051,0.0706 0.79349,2.71142 0.7935,2.71143 0.82504,5.42285 0.82503,5.42285 1.00385,6.32664 1.00384,6.32667 0.82634,4.97094 0.82634,4.97095 0.89909,6.32665 0.89907,6.32666 0.48685,3.16332 0.48683,3.16333 0.98858,4.59977 0.98856,4.59978 -1.04512,1.95283 -1.04513,1.95283 h -4.83519 -4.83519 l -1.45966,-2.22772 -1.45966,-2.22773 v -2.74322 -2.74322 l -1.80762,-1.80761 -1.80761,-1.80762 h -2.51032 -2.51032 l -2.00871,1.40696 -2.00874,1.40698 v 2.70504 2.70506 l -1.37891,2.66655 -1.37894,2.66653 h -4.83705 -4.83708 l -1.13937,-1.37287 z m 22.10347,-26.04197 1.64711,-1.20441 -1.06773,-10.77104 -1.06772,-10.77105 -0.50724,-2.93738 -0.50724,-2.93737 h -0.67973 -0.67971 l -0.98092,5.19689 -0.9809,5.1969 -1.06596,6.93373 -1.06595,6.93374 0.56827,2.26414 0.56826,2.26414 1.58104,0.41323 1.58106,0.4132 0.50511,0.10484 0.50511,0.10483 z m 80.16886,25.83317 -0.83961,-1.58167 0.22441,-33.23406 0.2244,-33.23408 0.58007,-0.58006 0.58006,-0.58007 11.63483,0.0617 11.63484,0.0617 3.05538,2.01153 3.05539,2.01152 2.58652,3.651 2.58655,3.65102 -0.36846,8.42473 -0.36848,8.4247 -2.89592,2.98784 -2.89593,2.98784 v 1.27457 1.27457 l 3.2847,3.36386 3.28471,3.36383 0.39918,12.13176 0.39917,12.13174 -1.48891,1.48891 -1.48893,1.48892 h -4.87457 -4.8746 l -0.93562,-1.7482 -0.93559,-1.74821 -0.0286,-11.13107 -0.0288,-11.13106 -1.20065,-1.58167 -1.20065,-1.58165 h -2.06022 -2.06026 l -1.20065,1.58165 -1.20064,1.58167 -0.0287,11.79469 -0.0287,11.7947 -1.08458,1.08457 -1.08457,1.08456 h -4.75838 -4.75838 l -0.83961,-1.58166 z m 20.59039,-41.2656 1.05576,-1.27212 -0.26723,-6.63621 -0.26724,-6.63621 -3.52323,-0.2885 -3.52324,-0.28848 -0.75601,1.1923 -0.75601,1.19229 -0.0138,5.91995 -0.0138,5.91994 1.08457,1.08456 1.08457,1.08458 h 2.42 2.41999 l 1.05576,-1.2721 z m 82.08996,42.21263 -2.48548,-0.38923 0.0138,-33.60682 0.0138,-33.60681 0.77241,-1.21884 0.77239,-1.21883 13.15515,-0.44449 13.15515,-0.44451 0.6137,4.09231 0.61366,4.09232 -0.84309,2.54196 -0.84308,2.54197 -6.70748,0.4519 -6.70748,0.4519 -0.27498,5.32863 -0.27499,5.32862 0.79063,0.79063 0.79065,0.79064 4.59717,0.32807 4.5972,0.32805 0.98788,0.61054 0.98786,0.61053 v 5.25885 5.25884 l -1.34751,1.11832 -1.3475,1.11832 -4.01847,-0.6026 -4.01848,-0.6026 -0.99848,1.86569 -0.99851,1.86573 0.26377,6.99326 0.26376,6.99326 6.74879,0.4519 6.7488,0.45191 0.81592,2.8591 0.81592,2.8591 -0.81873,3.46755 -0.81875,3.46755 -11.26501,0.10323 -11.26501,0.10323 -2.48547,-0.38923 z m 90.12898,-1.85083 -0.6737,-2.48548 0.15722,-31.52913 0.15721,-31.52915 0.90221,-1.68579 0.90222,-1.68581 4.71319,0.0138 4.71319,0.0138 0.90525,0.664 0.90525,0.66403 1.0371,2.25951 1.03712,2.25952 0.89019,2.71143 0.8902,2.71142 0.95155,3.61523 0.95158,3.61524 1.04729,4.51903 1.04728,4.51904 0.92704,2.48547 0.92704,2.48548 h 0.79418 0.79414 v -15.18398 -15.18396 l 1.08457,-1.08458 1.08457,-1.08457 h 3.7463 3.74629 l 1.4958,1.65282 1.49579,1.65284 v 32.963 32.96302 l -1.08457,1.08457 -1.08457,1.08457 h -4.15751 -4.15753 l -1.08457,-1.08457 -1.08457,-1.08457 v -1.63912 -1.63911 l -0.82742,-1.56941 -0.82744,-1.56939 -1.88398,-6.35216 -1.884,-6.35216 v -1.11652 -1.11652 l -0.81572,-1.5694 -0.81572,-1.5694 -1.13656,-3.84118 -1.13656,-3.84119 h -0.65374 -0.65373 l -0.54497,2.03357 -0.54497,2.03357 -0.0124,12.82042 -0.0123,12.82043 -0.88145,2.31835 -0.88143,2.31836 h -4.89533 -4.89534 l -0.67371,-2.48547 z m 98.98259,1.11745 -1.13536,-1.36804 1.10355,-5.63647 1.10347,-5.6365 0.77202,-4.51903 0.77204,-4.51905 1.90613,-15.81663 1.90613,-15.81664 0.85826,-5.02536 0.85825,-5.02533 v -1.8685 -1.86851 l 1.35942,-1.12822 1.35941,-1.12821 9.07849,-0.28103 9.07848,-0.28104 0.99076,2.42834 0.99075,2.42836 0.77121,4.51903 0.77132,4.51904 0.93543,6.32666 0.93554,6.32665 0.81225,5.42286 0.81225,5.42284 0.9772,6.32665 0.9771,6.32666 0.83295,4.97094 0.83294,4.97096 0.54998,4.06711 0.54997,4.06714 -0.8598,1.27446 -0.85978,1.27445 -4.86367,0.40334 -4.86375,0.40334 -1.12551,-1.35614 -1.12552,-1.35615 -0.54571,-4.60786 -0.54573,-4.60788 -1.00467,-0.7835 -1.00466,-0.78348 -2.99143,-0.56731 -2.99152,-0.56729 -2.20538,2.37971 -2.20547,2.37971 v 3.41869 3.4187 l -1.42024,1.42028 -1.42035,1.42027 h -4.79569 -4.79569 z m 22.40431,-26.24936 2.00873,-1.40698 v -2.64339 -2.6434 l -0.99184,-6.56938 -0.99184,-6.56939 -1.15887,-4.51904 -1.15886,-4.51903 -1.09107,2.71142 -1.09108,2.71142 -0.76769,7.68237 -0.76779,7.68236 -0.60366,2.84324 -0.60365,2.84323 1.9017,1.90176 1.90179,1.90176 h 0.70272 0.70271 z m 37.25723,-85.80753 -4.06714,-1.19112 -6.77856,-1.92852 -6.77856,-1.92854 -5.42284,-1.36389 -5.42284,-1.36387 -1.56938,-0.85851 -1.56946,-0.85852 h -2.28402 -2.28401 l -1.56946,-0.81571 -1.56937,-0.81572 -4.06714,-1.09847 -4.06714,-1.09846 -1.12885,-0.31663 -1.12894,-0.31664 -2.19003,-4.78789 -2.19001,-4.78792 -0.62236,-2.4798 -0.62246,-2.4798 -0.80366,-0.49671 -0.80366,-0.49669 v -2.15284 -2.15285 l -0.90382,-0.55858 -0.90381,-0.55858 v -1.27973 -1.27975 l -2.71141,-5.92002 -2.71142,-5.92001 v -1.27974 -1.27974 l -0.90382,-0.55858 -0.90381,-0.55859 v -1.31222 -1.31223 l -1.74018,-3.83133 -1.74029,-3.83133 -2.23304,-6.32665 -2.23294,-6.32667 -2.45241,-6.32665 -2.45229,-6.32665 -1.70864,-3.83133 -1.70875,-3.83134 v -1.31222 -1.31223 l -0.90381,-0.55857 -0.9038,-0.55858 v -1.31223 -1.31222 l -1.95657,-4.28324 -1.95665,-4.28322 -1.34676,-1.58167 -1.34687,-1.58167 h -1.8293 -1.82931 l -2.77559,-0.84257 -2.77559,-0.84257 -4.06714,-1.08722 -4.06713,-1.08722 -2.93227,-0.96136 -2.93228,-0.96134 -1.33207,1.76138 -1.33206,1.76138 -0.0287,1.59393 -0.0287,1.59392 -0.81571,1.5694 -0.81572,1.5694 -0.98236,3.61524 -0.98238,3.61522 -2.34883,8.13427 -2.34882,8.13428 -0.73402,2.71142 -0.73401,2.71142 -2.41342,9.03807 -2.41342,9.03809 -0.50578,5.94186 -0.50578,5.94186 2.40417,2.40417 2.40418,2.40417 5.17002,2.27145 5.16998,2.27143 2.25953,1.1667 2.25951,1.16668 v 3.12867 3.12866 l -2.59557,0.29662 -2.59557,0.29661 -0.97448,-0.97446 -0.97446,-0.97448 h -1.78864 -1.78864 l -3.2275,-1.01475 -3.2275,-1.01474 -1.5694,-0.79287 -1.5694,-0.79287 h -1.47528 -1.47529 l -5.54148,-1.74446 -5.54149,-1.74446 -4.06714,-1.05506 -4.06714,-1.05503 -1.56939,-0.81572 -1.56941,-0.81572 h -2.28413 -2.28405 l -1.56941,-0.79287 -1.5694,-0.79286 -3.22749,-1.01474 -3.22749,-1.01477 h -1.91605 -1.91608 l -0.45219,-0.73167 -0.4522,-0.73167 -5.98085,-1.24809 -5.98083,-1.24808 -0.4522,-0.73166 -0.45219,-0.73168 h -1.5741 -1.57408 l -2.43265,-1.12975 -2.43267,-1.12976 -0.006,-2.37481 -0.006,-2.37481 1.42341,-1.18131 1.42341,-1.18133 5.1292,1.05125 5.12921,1.05125 6.3966,0.5866 6.39661,0.58661 1.96065,-1.04933 1.96067,-1.04931 1.7939,-3.51634 1.79391,-3.51635 2.13967,-6.62127 2.13968,-6.6213 1.12841,-4.06711 1.12839,-4.06714 0.81572,-1.5694 0.81573,-1.56939 v -2.28406 -2.28405 l 0.79285,-1.56939 0.79286,-1.5694 0.93509,-3.16333 0.9351,-3.16332 1.9812,-6.77856 1.98122,-6.77856 0.70505,-2.25952 0.70506,-2.25952 1.11166,-4.06714 1.11165,-4.06714 0.74428,-1.80761 0.74431,-1.80761 2.40083,-9.48999 2.40081,-9.48998 0.43517,-2.25951 0.43518,-2.25954 0.71049,-1.8076 0.71049,-1.80762 1.02903,-3.22751 1.02906,-3.22749 v -1.52975 -1.52977 l 0.81571,-1.56939 0.81573,-1.5694 1.11406,-4.06714 1.11409,-4.06714 0.90685,-3.16332 0.90687,-3.16333 0.67555,-1.807611 0.67556,-1.80762 1.06807,-4.067119 1.06807,-4.06714 0.81927,-2.711425 0.81928,-2.711423 0.22041,-5.269436 0.22043,-5.269438 -3.37074,-2.912938 -3.37072,-2.912923 -3.37901,-1.219439 -3.379,-1.21943 -5.23914,-2.323114 -5.23914,-2.323102 0.26819,-2.736007 0.26766,-2.736019 3.50555,-0.287445 3.50554,-0.287444 2.3692,0.860481 2.36922,0.860482 4.06713,1.111649 4.06713,1.111639 1.80762,0.697773 1.80761,0.697764 3.61524,0.98829 3.61522,0.988281 6.32666,1.720929 6.32666,1.720929 4.51903,1.09285 4.51904,1.092851 1.80762,0.71698 1.80762,0.716967 4.06714,1.06807 4.06713,1.068063 2.7756,0.842575 2.77558,0.842564 h 1.91608 1.91607 l 0.49682,0.803948 0.49692,0.803938 2.94569,0.467675 2.94578,0.467676 3.61524,1.071994 3.61522,1.071996 2.94579,0.467664 2.94569,0.467675 0.4969,0.803948 0.49683,0.803949 h 1.91607 1.91608 l 3.22749,1.042746 3.2275,1.042757 2.71142,1.116236 2.71143,1.116237 2.01956,0.608869 2.01947,0.608896 7.92242,3.895052 7.92232,3.89504 5.76322,4.345399 5.76322,4.345381 3.96356,5.03428 3.96365,5.03427 1.8153,4.8286 1.8153,4.82859 0.53134,6.46902 0.53127,6.469 -0.94078,4.51903 -0.94078,4.51904 -0.87894,3.43055 -0.87896,3.43053 -2.50589,5.15564 -2.506,5.15563 -1.87295,2.59625 -1.87306,2.59627 -2.89806,2.9228 -2.89796,2.92282 -2.52488,1.69074 -2.52479,1.69074 -3.99439,2.05421 -3.99436,2.05423 h -1.60111 -1.60109 l -0.49682,0.80394 -0.49692,0.80394 -3.3976,0.55164 -3.39767,0.55161 -6.77857,0.90411 -6.77856,0.90409 -3.38928,0.55064 -3.38928,0.55064 v 0.71315 0.71314 l 2.71143,5.15451 2.71143,5.15449 v 0.85569 0.85569 l 1.80761,3.74134 1.80761,3.74132 v 0.74391 0.74389 l 1.89774,4.28323 1.89762,4.28324 0.72161,1.80761 0.72159,1.80763 1.35247,3.16332 1.35245,3.16333 1.99968,4.51904 1.99968,4.51904 2.61479,5.71186 2.61472,5.71186 v 0.48926 0.48924 l 4.06714,8.53015 4.06713,8.53016 v 0.7841 0.78411 l 0.67786,0.30127 0.67786,0.30126 2.58227,4.97094 2.58217,4.97095 1.86845,2.03357 1.86835,2.03357 h 1.19818 1.19818 v 0.68318 0.68318 l 2.48547,1.04057 2.48547,1.04059 3.61523,1.196 3.61523,1.196 2.71143,1.4504 2.71142,1.45042 0.27105,1.39488 0.27114,1.39488 -1.46544,1.4654 -1.46542,1.46542 -1.51705,-0.0808 -1.51713,-0.0808 -4.06713,-1.1911 z m -57.84371,-122.66087 4.06714,-0.9981 4.47747,-2.22506 4.47746,-2.22506 4.68073,-4.79428 4.68064,-4.79428 1.23036,-2.77943 1.23026,-2.77944 h 0.68318 0.68319 v -1.62685 -1.62686 l 0.74663,-0.85862 0.74664,-0.85861 1.16647,-4.06713 1.16636,-4.06714 0.79842,-2.62035 0.79833,-2.62033 v -9.36739 -9.36738 l -0.79833,-1.5694 -0.79842,-1.56938 -1.23515,-2.71144 -1.23523,-2.71142 -4.06714,-4.07208 -4.06714,-4.072059 -7.68236,-3.742371 -7.68237,-3.74236 -4.97095,-1.79566 -4.97093,-1.795638 -4.06714,-1.116226 -4.06714,-1.116219 -1.35571,-0.492585 -1.35571,-0.492598 -5.87475,-1.623488 -5.87476,-1.623464 -1.50791,1.967409 -1.508,1.967396 -0.56848,2.740713 -0.56851,2.7407 -0.50884,2.94575 -0.50894,2.945765 -0.80393,0.496858 -0.80395,0.49686 v 1.861576 1.86159 l -1.9289,5.993401 -1.92899,5.99339 -0.47785,1.35571 -0.47784,1.35571 -1.70959,5.87476 -1.70962,5.87475 -0.80358,2.71142 -0.80359,2.71142 -0.89234,3.16334 -0.89235,3.16332 -1.93246,7.23046 -1.93247,7.23047 -0.96195,3.16332 -0.96197,3.16334 -0.10537,3.98329 -0.10537,3.98331 6.77855,1.74072 6.77857,1.7407 4.06713,0.87326 4.06714,0.87327 6.77856,0.73077 6.77855,0.73076 6.77856,-0.37237 6.77857,-0.37236 z m -794.447121,100.89739 -2.259516,-0.40198 -5.422847,-0.99342 -5.422847,-0.99342 -5.422847,-1.75662 -5.422847,-1.75663 -7.647694,-3.72406 -7.647707,-3.72406 -2.764342,-1.87652 -2.76435,-1.87652 -3.90367,-3.16334 -3.903648,-3.16333 -3.330589,-3.16333 -3.3306,-3.16332 -3.194599,-4.06714 -3.194599,-4.06713 -4.013822,-6.77907 -4.013812,-6.77908 -2.845139,-5.87422 -2.845139,-5.87425 -1.772802,-4.97095 -1.7728031,-4.97094 -0.94679,-3.16331 -0.946787,-3.16333 L 5.566048,187.54545 4.6373026,183.0264 3.6743629,177.54916 2.7114231,172.0719 v -6.66974 -6.66976 l 0.9629398,-5.47724 0.9629397,-5.47725 0.9110896,-4.51905 0.9110907,-4.51904 0.956989,-2.71142 0.95699,-2.71143 1.445944,-3.61522 1.4459451,-3.61524 3.488641,-6.7536 3.48864,-6.75357 2.445859,-3.18832 2.44585,-3.18828 1.539896,-2.45651 1.539898,-2.45651 6.550754,-6.486567 6.550754,-6.486573 3.163327,-2.15063 3.163328,-2.150622 3.61523,-2.724134 3.61523,-2.724133 9.489983,-4.727265 9.489984,-4.727276 5.874751,-1.988983 5.87475,-1.988987 8.134272,-2.04996 8.134279,-2.049962 18.528053,-0.01129 18.52807,-0.01129 6.77855,1.268789 6.77856,1.268766 0.85862,0.764802 0.85862,0.764779 h 1.45709 1.45708 l 3.74134,1.807616 3.74134,1.807616 h 0.84416 0.84416 l 2.13686,1.145401 2.13689,1.145408 2.71143,1.759307 2.71142,1.759307 3.84118,3.078912 3.84118,3.078911 -0.0286,1.472789 -0.0287,1.47279 -1.10101,1.361265 -1.10101,1.361251 -3.16332,2.580903 -3.16333,2.5809 -5.89632,5.547789 -5.89631,5.547841 -7.65022,6.77856 -7.6502,6.77857 -5.43344,5.13592 -5.43344,5.13594 -2.42539,1.88688 -2.42535,1.8869 -3.0996,-1.74095 -3.09962,-1.74093 -1.70548,-0.88334 -1.70549,-0.88336 -2.39974,-1.1161 -2.39972,-1.11609 -6.18645,0.37437 -6.18644,0.37437 -6.037933,2.912 -6.037935,2.912 -5.024851,4.98489 -5.024867,4.98488 -1.859686,4.08225 -1.859676,4.08224 -1.459807,7.2783 -1.45982,7.27832 1.127093,6.0076 1.127094,6.0076 0.890805,3.16334 0.890793,3.16332 0.946287,2.25951 0.946287,2.25953 0.964634,1.80761 0.964624,1.80763 1.183287,2.25951 1.183276,2.25952 4.759068,5.83169 4.759067,5.8317 7.22255,3.65828 7.22255,3.6583 h 8.13427 8.13427 l 5.87476,-2.85005 5.87474,-2.85005 4.23927,-3.93553 4.23924,-3.93551 1.84159,-4.06013 1.84161,-4.06012 0.0199,-2.58606 0.0199,-2.58606 -3.37326,0.63283 -3.37328,0.63283 -3.57506,1.72727 -3.57505,1.72727 h -1.03276 -1.03277 l -4.44627,2.25574 -4.44626,2.25574 -2.41929,0.003 -2.41926,0.003 -1.42193,-2.85029 -1.4219,-2.85028 v -1.61541 -1.61543 l -0.80366,-0.49669 -0.80369,-0.49672 -0.62173,-2.49401 -0.62174,-2.49401 -1.18311,-2.71142 -1.18313,-2.71142 -2.0134,-5.42285 -2.0134,-5.42284 -1.11724,-2.71144 -1.11724,-2.71142 -1.17364,-2.99678 -1.17366,-2.99679 1.26403,-1.22348 1.26401,-1.22349 8.08397,-3.23614 8.08394,-3.23615 h 0.73802 0.73803 l 3.83133,-1.71454 3.83134,-1.71451 8.84078,-3.70833 8.84078,-3.70831 h 0.885 0.885 l 3.83134,-1.70369 3.83133,-1.70371 5.42285,-1.99965 5.42285,-1.99964 1.80761,-0.75638 1.80762,-0.75636 5.87475,-1.98114 5.87475,-1.98111 0.90381,-0.64186 0.90381,-0.64185 5.42285,-2.10316 5.42284,-2.10314 0.90381,-0.67517 0.90381,-0.67516 3.26307,-0.60969 3.26308,-0.60969 0.72535,1.65858 0.72538,1.65856 1.70962,5.87476 1.70964,5.87475 0.91463,3.16333 0.91464,3.16333 0.88954,3.61523 0.88955,3.61523 0.89628,4.51903 0.89626,4.51905 1.30991,9.48997 1.3099,9.48999 0.006,4.59779 0.006,4.59779 -1.356,8.50742 -1.35602,8.50743 -0.86305,3.61523 -0.86308,3.61523 -0.60025,2.49883 -0.60028,2.49883 -0.7959,0.49188 -0.79589,0.49189 v 1.35932 1.35933 l -2.88508,6.04375 -2.88509,6.04376 -0.56385,0.45189 -0.56384,0.45191 -2.79046,4.06714 -2.7905,4.06713 -8.54438,8.36023 -8.54437,8.36021 h -0.89278 -0.89275 l -1.63588,1.80762 -1.63588,1.80762 h -0.82682 -0.82685 l -3.77806,2.525 -3.77809,2.52501 -5.87475,2.80962 -5.87475,2.80962 -4.06713,1.52923 -4.06714,1.52925 -3.61523,1.1401 -3.61523,1.14009 -3.61524,0.9619 -3.61523,0.9619 -4.97095,1.04521 -4.97093,1.0452 -14.46093,0.32321 -14.46093,0.32319 -2.259513,-0.40197 z m 228.889351,-10.93743 -1.12976,-0.44169 v -5.68877 -5.68877 l 1.12976,-0.91009 1.12975,-0.91012 2.82389,-0.60316 2.82387,-0.60315 2.03372,-2.1648 2.03373,-2.16481 0.80619,-3.88902 0.80617,-3.88901 0.93062,-4.97095 0.93062,-4.97093 0.82988,-4.51904 0.82989,-4.51904 0.90308,-5.42285 0.9031,-5.42285 0.96953,-6.32666 0.96951,-6.32664 0.86604,-6.32665 0.86604,-6.32666 0.91853,-6.32665 0.91853,-6.32667 0.85121,-7.23046 0.85121,-7.23045 1.01467,-7.23047 1.01468,-7.23046 0.86701,-6.32666 0.86702,-6.32666 0.84803,-6.32665 0.84801,-6.32666 0.92765,-6.32665 0.92767,-6.326651 0.90389,-6.778559 0.90389,-6.778552 0.83235,-4.970944 0.83236,-4.970942 1.01739,-6.326655 1.01741,-6.326649 0.86222,-6.552607 0.86223,-6.552608 0.86975,-6.552604 0.86977,-6.552608 0.90745,-7.124738 0.90746,-7.124744 0.4107,-0.410708 0.4107,-0.410709 3.46089,-0.803214 3.46088,-0.803214 2.91655,-0.02152 2.91652,-0.02159 1.37451,2.097756 1.37451,2.097755 4.10453,11.233408 4.10453,11.233415 1.77226,3.831332 1.77228,3.831331 v 0.925918 0.925929 l 0.83363,1.569394 0.83362,1.569406 2.87142,7.682367 2.87139,7.682362 1.79859,4.970942 1.7986,4.970943 1.72682,3.474688 1.72685,3.47468 v 1.66888 1.668843 l 0.9038,0.55859 0.90381,0.558578 v 1.312228 1.31222 l 1.7037,3.831331 1.7037,3.83133 1.98376,5.42284 1.98376,5.42286 0.83158,1.5694 0.83158,1.5694 v 0.95974 0.95972 l 1.80762,3.74135 1.80762,3.74131 v 1.01619 1.0162 l 1.80761,3.74131 1.8076,3.74135 v 0.95972 0.95975 l 0.83493,1.56939 0.8349,1.5694 3.75303,9.94189 3.75304,9.94188 0.83489,1.5694 0.83491,1.5694 v 0.95974 0.95973 l 1.80762,3.74134 1.80762,3.74133 v 0.77771 0.7777 l 1.80762,3.74134 1.80761,3.74132 v 1.19823 1.19821 l 0.83364,1.56939 0.83363,1.5694 2.86771,7.68236 2.86771,7.68238 0.81769,2.03356 0.8177,2.03356 0.86167,2.03357 0.86164,2.03357 2.79099,6.30822 2.79098,6.30825 1.92776,2.05198 1.92775,2.05198 h 4.25083 4.25083 l 1.12287,1.353 1.12288,1.35298 0.11754,5.00434 0.11755,5.00437 -1.21476,0.75305 -1.21476,0.75305 -13.24617,0.54346 -13.24615,0.54345 -7.23046,0.90838 -7.23047,0.90836 -5.87477,0.97797 -5.87474,0.97798 -3.61523,0.47642 -3.61524,0.47642 -1.08816,-1.80346 -1.08816,-1.8035 -0.55929,-4.37195 -0.55928,-4.37194 2.5055,-1.12977 2.50548,-1.12975 h 1.51705 1.51706 l 3.2737,-1.36784 3.27371,-1.36785 v -4.06726 -4.06728 l -0.78444,-1.5694 -0.78445,-1.5694 -3.9089,-12.2014 -3.90889,-12.20141 -0.68682,-1.35572 -0.68682,-1.35569 -1.96084,-5.87476 -1.96082,-5.87474 -1.46065,-1.66496 -1.46064,-1.66496 -3.17381,0.57697 -3.17383,0.57699 -10.39379,0.78936 -10.39379,0.78936 -9.94188,1.00621 -9.94189,1.00621 -1.86629,0.77847 -1.86629,0.77848 -1.03922,4.84058 -1.03923,4.84059 -0.53342,4.06713 -0.53339,4.06714 -0.87665,7.23046 -0.87665,7.23047 -0.55178,9.3515 -0.5518,9.35153 2.30702,2.1392 2.30702,2.13919 6.17558,0.61925 6.17556,0.61924 0.66401,0.99525 0.66403,0.99526 0.0138,5.1002 0.0138,5.1002 -1.42964,0.54859 -1.42961,0.54861 h -5.07608 -5.07607 l -7.72927,0.96828 -7.72927,0.96827 -4.51904,0.80674 -4.51904,0.80673 -3.61524,0.39898 -3.61522,0.39897 -1.12976,-0.44168 z m 67.10774,-95.98833 6.32665,-0.79204 1.58166,-0.65767 1.58166,-0.65766 v -2.87552 -2.87552 l -3.60133,-9.45514 -3.60136,-9.45513 -0.0139,-0.68771 -0.0139,-0.68771 -1.72709,-3.83133 -1.72712,-3.83134 -1.91129,-5.42284 -1.91132,-5.42285 -0.79453,-1.80762 -0.79454,-1.80761 -2.8024,-7.23047 -2.80239,-7.230451 0.004,-0.68771 0.004,-0.68771 -1.881,-4.283224 -1.88102,-4.283245 -1.26769,-2.93737 -1.26769,-2.937368 h -0.82173 -0.82173 l -0.5486,1.429628 -0.54861,1.429617 v 2.708013 2.708 l -1.77306,10.09733 -1.77308,10.09735 -2.33231,18.52806 -2.33233,18.52806 -0.82553,7.60746 -0.82555,7.60747 0.53551,0.86647 0.53551,0.86645 11.85184,-0.56831 11.85183,-0.5683 6.32666,-0.79206 z m 183.02109,93.85188 -4.97095,-0.70665 -7.23046,-0.98191 -7.23045,-0.98193 -2.71143,-0.75022 -2.71143,-0.75023 0.15769,-4.44825 0.15772,-4.44825 0.57619,-3.61523 0.5762,-3.61524 0.79646,-1.8076 0.79648,-1.80762 0.45727,-3.61524 0.45727,-3.61524 0.98516,-4.97093 0.98518,-4.97095 0.85638,-4.97093 0.85638,-4.97096 0.91099,-5.87474 0.91098,-5.87474 0.94998,-5.42286 0.94999,-5.42283 0.8672,-5.87476 0.86723,-5.87475 0.92791,-5.87475 0.92794,-5.87475 0.81321,-5.87476 0.81321,-5.87474 1.40164,-8.13428 1.40165,-8.13427 0.0211,-5.42284 0.0211,-5.42285 0.87126,-5.32022 0.87127,-5.32022 0.38441,-0.38441 0.38441,-0.38442 7.55123,0.9642 7.55121,0.96419 5.42285,0.78842 5.42285,0.78843 3.84117,1.04946 3.84119,1.04948 v 0.93478 0.93479 l -1.71407,7.3906 -1.71407,7.39061 -0.9655,4.97095 -0.96548,4.97094 -0.56364,4.06714 -0.56364,4.06714 -0.75651,4.97094 -0.75652,4.97094 -0.92451,6.32666 -0.92455,6.32665 -1.03421,5.87475 -1.03422,5.87475 -0.74808,4.51903 -0.74809,4.51906 -0.92457,5.87473 -0.92459,5.87476 -0.99768,5.791 -0.99769,5.79099 -0.89089,6.4104 -0.89088,6.41041 -0.92611,5.87476 -0.9261,5.87474 -0.62585,8.13428 -0.62585,8.13427 -1.80761,0.10846 -1.80761,0.10845 z m 106.64933,-37.01835 -1.35572,-0.87611 -2.88402,-0.0138 -2.88406,-0.0139 -0.55857,-0.9038 -0.55858,-0.90382 h -1.57682 -1.57683 l -4.62218,-2.30332 -4.6222,-2.30333 -1.08877,-1.31191 -1.08878,-1.3119 -1.01909,-0.0171 -1.0191,-0.0171 -5.42284,-5.6317 -5.42286,-5.63171 -1.82848,-2.71142 -1.82848,-2.71143 -1.95132,-4.06713 -1.95133,-4.06714 -1.82189,-5.42285 -1.8219,-5.42284 -1.02366,-9.48999 -1.02368,-9.48998 1.04679,-7.23046 1.04679,-7.23047 0.92481,-2.71142 0.92479,-2.71142 1.02556,-2.25952 1.02556,-2.25952 1.77799,-2.71142 1.77796,-2.71143 7.46122,-7.3479 7.46121,-7.34789 7.6859,-5.11403 7.68592,-5.11403 5.23117,-2.319691 5.23119,-2.31968 7.98983,-2.616686 7.98983,-2.616683 h 12.15686 12.15688 l 6.06373,1.934625 6.06373,1.934596 4.37218,2.187818 4.37217,2.187821 3.91659,3.91659 3.91657,3.91659 2.34726,3.71827 2.34724,3.7183 1.88409,4.73718 1.88409,4.73718 1.26297,4.7891 1.26299,4.78908 v 0.87435 0.87433 l -3.38929,1.46635 -3.38927,1.46638 -1.80762,0.6873 -1.80762,0.68733 -3.16332,1.08622 -3.16333,1.08622 -1.80761,0.76407 -1.80762,0.76407 -8.13427,2.63156 -8.13427,2.63155 -4.06714,1.13523 -4.06714,1.13522 -1.8076,0.7392 -1.80762,0.73921 -2.71142,0.45787 -2.71143,0.45789 -3.61523,0.91897 -3.61523,0.91896 -2.71142,0.56043 -2.71144,0.56045 -1.8076,0.76764 -1.80762,0.76764 -2.25952,0.43619 -2.25952,0.43622 -5.87475,1.47579 -5.87476,1.47579 -3.61523,0.95438 -3.61523,0.95437 -2.93737,1.25422 -2.93738,1.25423 0.013,0.69248 0.013,0.69247 4.39858,9.03809 4.39859,9.03808 4.54829,4.68427 4.54829,4.68429 3.58468,2.26291 3.58469,2.2629 5.31046,1.74333 5.31045,1.74334 6.42232,1.14773 6.42233,1.14774 7.35841,-1.07594 7.3584,-1.07594 5.60551,-1.8402 5.60552,-1.84019 4.10795,-1.91118 4.10797,-1.91116 3.64868,-2.29953 3.64868,-2.29952 4.03369,-3.28644 4.03369,-3.2864 3.49642,-2.34951 3.49642,-2.3495 0.79667,0.49237 0.79666,0.49236 v 3.60679 3.60676 l -1.26486,2.44058 -1.26484,2.4406 -2.64034,2.25952 -2.64031,2.25951 -1.39695,0.90381 -1.39696,0.90381 -6.67332,4.57667 -6.67333,4.57666 -7.68238,3.63611 -7.68235,3.63611 -3.84119,1.05125 -3.84123,1.05126 -3.38928,0.87436 -3.38927,0.87435 -4.78949,0.93325 -4.78947,0.93327 -11.93098,-0.0138 -11.93096,-0.0139 z m -8.36023,-67.69846 3.84119,-0.99093 3.84118,-0.95323 3.84119,-0.95323 3.61523,-0.75538 3.61523,-0.75537 4.51903,-0.9931 4.51905,-0.99309 7.23046,-1.7379 7.23046,-1.7379 5.16419,-1.41515 5.16419,-1.41515 4.09984,-1.92715 4.09985,-1.92714 v -1.66556 -1.66557 l -1.02193,-2.52799 -1.02192,-2.528 -3.66824,-7.53613 -3.66823,-7.53612 -3.67006,-2.96413 -3.67008,-2.96416 -2.25951,-1.22235 -2.25952,-1.22237 -3.16333,-1.14303 -3.16332,-1.14302 -7.77345,-0.0137 -7.77345,-0.0137 -3.07224,0.97277 -3.07225,0.97281 -5.87476,2.82972 -5.87475,2.8297 -4.5512,4.55774 -4.55119,4.55775 -1.60755,3.42226 -1.60755,3.42223 -1.29767,4.98208 -1.29766,4.98209 v 3.52664 3.52665 l 0.96356,4.78947 0.96356,4.78948 0.39713,1.21666 0.39713,1.21666 4.28811,-0.45169 4.2881,-0.45169 3.84118,-0.99091 z m -417.34557,39.66813 -1.99882,-1.99881 0.50246,-3.09621 0.50244,-3.09622 2.3489,-2.79151 2.34889,-2.7915 -0.5703,-4.17838 -0.57032,-4.17836 -4.4619,-18.52807 -4.46192,-18.52805 -0.8133,-3.16333 -0.81328,-3.16333 -1.06933,-5.42285 -1.06933,-5.42284 -1.76379,-8.13428 -1.76379,-8.13427 -0.80532,-3.615231 -0.80534,-3.615224 -1.06031,-4.970935 -1.06031,-4.970948 -1.783,-3.73538 -1.78299,-3.735394 -2.39778,-1.229382 -2.3978,-1.229381 -1.60626,-1.754518 -1.60629,-1.754505 -0.5459,-2.175065 -0.54591,-2.175081 1.81368,-1.813671 1.81367,-1.813683 12.53991,-2.981471 12.53992,-2.981458 5.27838,-1.078379 5.27839,-1.078378 2.17803,2.046165 2.17804,2.046153 v 2.1614 2.161378 l -0.9861,1.842536 -0.98609,1.842513 -2.50323,2.619394 -2.50323,2.619388 0.86866,4.290794 0.86867,4.290794 1.34589,5.422847 1.34588,5.422852 0.73402,3.163325 0.73401,3.163314 1.03683,4.519041 1.03685,4.51904 0.90905,3.61524 0.90904,3.61522 0.85438,3.84119 0.8544,3.84118 0.9038,4.06714 0.90381,4.06713 0.86452,3.84118 0.86452,3.84119 0.93767,4.51903 0.93768,4.51904 0.91625,4.06714 0.91626,4.06714 0.51695,3.16332 0.51693,3.16333 0.76142,1.80762 0.76146,1.80761 0.50257,2.33862 0.50256,2.33862 1.89286,2.40636 1.89286,2.40639 h 1.75863 1.75864 l 6.87297,-1.84183 6.87297,-1.84182 2.56339,-1.32558 2.56337,-1.32558 2.18182,-2.18181 2.18182,-2.18181 3.42744,-6.93658 3.42742,-6.93658 1.85047,-0.68453 1.85047,-0.68454 1.41863,0.37098 1.41862,0.37096 1.0554,2.43153 1.05539,2.4315 1.08955,9.52552 1.08954,9.52553 -1.27034,2.60849 -1.27034,2.60848 -2.71141,1.50182 -2.71142,1.5018 -3.61524,0.55457 -3.61522,0.55455 -8.58618,1.9432 -8.58618,1.9432 -3.38928,0.81282 -3.38927,0.81282 -3.84119,0.95323 -3.84119,0.95322 -3.61522,0.80497 -3.61524,0.80497 -4.06714,1.00265 -4.06713,1.00264 -4.06713,0.89487 -4.06714,0.89483 -2.39602,0.5009 -2.39602,0.5009 z m 227.31998,-26.78997 -2.71144,-0.32099 -5.42284,-1.03556 -5.42286,-1.03558 -6.455,-3.02192 -6.45504,-3.02193 -4.4555,-3.39441 -4.45551,-3.3944 -3.09848,-3.61523 -3.09849,-3.61524 -1.85684,-2.71143 -1.85682,-2.71142 -1.98437,-4.28323 -1.98435,-4.28324 v -1.31222 -1.31224 l -0.80395,-0.49686 -0.80395,-0.49687 -0.57257,-3.39764 -0.57259,-3.39766 -0.9543,-6.77856 -0.95432,-6.77856 0.48037,-9.401951 0.48037,-9.401909 0.94665,-0.94667 0.94667,-0.946656 v -1.457102 -1.457084 l 1.81944,-4.010953 1.81943,-4.010942 1.88286,-3.49368 1.88288,-3.493676 3.88415,-5.092494 3.88413,-5.092494 2.5814,-1.880687 2.58138,-1.880679 4.51905,-3.123706 4.51905,-3.123717 5.7777,-2.560557 5.77772,-2.560564 6.87559,-1.73983 6.87559,-1.739852 9.9419,-0.721658 9.94188,-0.721657 7.33032,0.736852 7.33032,0.736853 2.50075,0.950784 2.50076,0.950783 -0.55874,3.819771 -0.55875,3.819787 -0.81846,5.081342 -0.81848,5.081355 -1.03199,1.92832 -1.03201,1.928319 -3.80663,-0.683018 -3.80662,-0.683008 -10.96298,0.07129 -10.96298,0.07129 -3.04604,1.143803 -3.04604,1.143791 -5.46151,2.618365 -5.46152,2.618343 -4.06109,3.947172 -4.06108,3.947177 -2.15755,4.420796 -2.15754,4.420778 -0.70018,1.807613 -0.70014,1.80762 -0.97833,5.020535 -0.97832,5.020524 1.32467,8.818011 1.3247,8.81801 2.97198,5.91441 2.97198,5.91439 4.54292,4.54989 4.54292,4.54989 5.42285,2.46539 5.42285,2.46538 6.12915,1.19533 6.12914,1.19535 6.94076,-1.16627 6.94076,-1.16625 7.71767,-2.52657 7.71768,-2.52659 1.01712,0.82712 1.0171,0.82712 1.08489,4.27592 1.08489,4.27592 0.76009,1.44882 0.76007,1.44881 0.60859,4.05838 0.60859,4.05837 -3.05677,1.45054 -3.05677,1.45053 -4.02913,1.01821 -4.02914,1.01817 -4.06713,0.82175 -4.06713,0.82172 -7.68237,0.90221 -7.68236,0.90224 -6.32666,-0.11937 -6.32665,-0.11935 z m 115.70698,-64.45063 -0.60084,-0.9722 0.14173,-4.726631 0.14173,-4.726649 -0.077,-1.61346 -0.077,-1.61347 -1.58166,0.88066 -1.58167,0.88066 -3.61524,3.200945 -3.61522,3.200914 -1.53043,0.0174 -1.53041,0.0174 -1.40696,-2.008716 -1.40696,-2.008713 v -1.21046 -1.21046 l 8.58618,-8.972578 8.58618,-8.972575 v -7.720378 -7.720371 l -1.36723,-0.524662 -1.36722,-0.524649 -1.30257,1.081034 -1.30257,1.081033 -6.26795,3.003839 -6.26797,3.00384 -1.55548,4.828367 -1.55547,4.828362 -2.27729,6.552607 -2.27727,6.552607 h -3.44469 -3.44471 l -0.59612,-0.964542 -0.59611,-0.964552 1.10469,-5.854646 1.10468,-5.854641 -0.50986,-0.509861 -0.50987,-0.509872 -2.53752,1.745716 -2.5375,1.745716 -3.49188,1.607298 -3.49186,1.607287 -1.35754,-1.357542 -1.35756,-1.357542 2.138,-1.344528 2.13798,-1.344515 3.95802,-2.149921 3.95801,-2.149933 -0.0651,-0.827261 -0.065,-0.827278 -5.92653,-1.856377 -5.92655,-1.856364 v -2.324594 -2.324593 l 1.21444,-1.660827 1.21443,-1.660827 2.17485,0.540274 2.17484,0.540274 8.13428,1.836097 8.13426,1.836085 2.71143,0.01015 2.71142,0.01015 2.25952,-1.240125 2.25952,-1.240115 4.51905,-2.444903 4.51903,-2.444902 0.73536,-0.705184 0.73535,-0.705185 -4.27958,-2.834691 -4.27959,-2.834681 h -1.20076 -1.20076 V 45.284743 44.46935 l -2.71784,-0.947448 -2.71786,-0.94745 -6.54619,1.303483 -6.54618,1.303468 -3.61523,0.88971 -3.61523,0.889708 -2.46225,0.02146 -2.46226,0.02158 -1.41587,-2.737973 -1.41584,-2.737959 0.50553,-0.817981 0.50555,-0.817991 4.72829,-1.375189 4.72828,-1.375189 1.62378,-1.188236 1.62381,-1.188248 -6.14284,-3.183069 -6.14284,-3.183076 v -1.304908 -1.304909 l 1.51363,-0.291496 1.51363,-0.291497 6.07803,3.339941 6.07806,3.339935 -0.73633,-3.964628 -0.73632,-3.964626 -0.0768,-3.163327 -0.0768,-3.163329 h 4.02739 4.02739 l 1.15933,4.067137 1.15932,4.067136 0.87627,1.807614 0.87625,1.807616 1.02562,4.067136 1.0256,4.067135 1.47834,1.655279 1.47833,1.655268 6.55101,3.194419 6.55102,3.194404 1.37654,-0.52823 1.37658,-0.528232 v -7.2531 -7.253091 l -6.21212,-7.01024 -6.21209,-7.010251 -2.37409,-2.191109 -2.37405,-2.19112 v -1.509992 -1.509983 l 1.65282,-1.4957939 1.65296,-1.495782 h 1.14586 1.14586 l 4.10712,3.6152309 4.10712,3.615232 h 1.47198 1.472 L 593.95336,7.8202751 593.61773,1.173766 595.14712,0.586882 596.6765,0 l 0.82224,0.508178 0.82226,0.508176 v 7.1771191 7.1771229 h 0.89424 0.89424 l 5.06266,-4.584773 5.06266,-4.5847667 1.8092,1.6372808 1.80917,1.63728 0.88018,1.6446329 0.88018,1.644632 -8.64628,9.008172 -8.64625,9.007705 v 8.057978 8.057977 l 0.68824,0.425366 0.68824,0.425344 8.02475,-4.213188 8.02475,-4.213202 3.13779,-9.038082 3.1378,-9.038079 0.45598,-2.033568 0.45598,-2.033567 h 3.89551 3.8955 l 0.31934,1.581663 0.31935,1.581665 -1.05455,5.690003 -1.05456,5.690013 0.57554,-0.273655 0.57552,-0.273645 5.62302,-2.930887 5.62304,-2.930887 h 1.38147 1.38148 l -0.0138,1.129761 -0.0138,1.12976 -0.66401,0.94267 -0.66403,0.942663 -5.1969,2.594403 -5.19688,2.594404 v 0.658378 0.658379 l 5.4645,1.636864 5.46447,1.636887 0.8618,1.038385 0.86178,1.038396 -1.03004,2.954772 -1.03002,2.954785 -5.03573,-0.591859 -5.03572,-0.591848 -4.55361,-1.244973 -4.55361,-1.244958 -3.36698,-0.471822 -3.36696,-0.471811 -6.12301,3.215419 -6.12302,3.21541 -1.56034,1.363981 -1.56036,1.36396 0.46692,0.75548 0.46692,0.755482 7.42009,4.029763 7.42008,4.029763 10.3938,-2.240686 10.39378,-2.240709 1.8626,-0.478487 1.86259,-0.478511 0.95016,1.20245 0.95016,1.202437 0.59874,2.505321 0.59873,2.505311 -1.60388,0.514018 -1.60387,0.514018 -1.80761,0.755764 -1.80762,0.755764 -2.48547,0.743936 -2.48547,0.743946 -0.14977,0.903808 -0.1498,0.903803 5.57265,2.987232 5.57261,2.98722 v 1.25253 1.252509 l -0.912,0.56366 -0.91201,0.563659 -6.31846,-3.160988 -6.31845,-3.161001 0.0216,2.424726 0.0216,2.424724 0.83105,3.58431 0.83105,3.584301 -0.96328,1.160689 -0.96328,1.160688 h -2.94768 -2.94769 l -1.82805,-4.744998 -1.82806,-4.74499 -2.08639,-6.17747 -2.08641,-6.177477 -2.29122,-1.601366 -2.29122,-1.601389 -6.00396,-2.840884 -6.00397,-2.840894 h -0.54865 -0.54863 v 8.269807 8.269826 l 7.96907,8.676567 7.96906,8.676594 0.60479,1.02352 0.6048,1.02354 -1.86091,2.365745 -1.86089,2.365754 h -1.19238 -1.19235 l -4.66786,-4.196829 -4.66788,-4.19681 -0.80671,0.80754 -0.80668,0.80754 -0.27199,6.317291 -0.27197,6.317309 -1.4974,0.28535 -1.4974,0.28534 -0.60085,-0.9722 z M 26.609121,49.336395 24.854717,48.054208 24.61436,28.383768 24.374003,8.7133271 23.992609,8.3319321 23.611213,7.9505391 11.805604,8.0847821 0,8.2190271 V 6.3889183 4.5588115 L 2.0335671,4.1472467 4.0671352,3.7356837 29.373756,3.248506 54.680375,2.76133 56.713942,3.296359 58.74751,3.8313887 v 1.7022026 1.7022018 l -0.225952,0.106778 -0.225953,0.106777 -12.201402,0.571085 -12.201407,0.571086 v 19.7284249 19.72842 l -1.754415,1.285101 -1.754405,1.285113 h -1.01022 -1.01022 z m 46.23542,-1.577868 -1.44372,-2.061202 V 24.839702 3.9820867 l 1.084568,-1.0845697 1.08457,-1.084568 2.30471,0.01384 2.30471,0.01384 1.097234,0.697249 1.097222,0.69725 0.25849,9.90865 0.258478,9.908658 13.557117,-0.231537 13.55712,-0.231546 5.87475,-0.672263 5.87476,-0.672269 0.4519,-9.489983 0.4519,-9.489981 3.38929,-0.280509 3.38927,-0.280511 0.10174,1.184318 0.10183,1.1843187 -0.14457,12.6533083 -0.14457,12.65331 0.91008,8.537558 0.9101,8.537582 -1.0159,1.224061 -1.01588,1.22406 -3.24068,-0.27165 -3.24072,-0.271651 -0.25533,-10.699671 -0.25532,-10.699652 -18.36141,0.305866 -18.361414,0.305876 -1.605468,1.333777 -1.605467,1.333775 0.434799,8.312542 0.434799,8.312533 -0.548272,0.859883 -0.548273,0.859883 -2.849367,0.617932 -2.849367,0.617934 z m 83.482369,-0.341662 -1.19491,-1.439776 -0.22128,-20.648165 -0.2213,-20.6481795 1.06063,-1.3751555 1.06062,-1.375155 11.57278,-0.962551 11.57278,-0.96255 h 1.75838 1.75838 v 1.696949 1.696949 l -1.17867,0.9782147 -1.17869,0.9782158 -8.53724,0.2622108 -8.53726,0.26221 -0.26552,7.0901907 -0.2655,7.090183 1.15186,1.387915 1.15186,1.387923 7.00597,-0.540269 7.00597,-0.540261 0.85675,1.600843 0.85673,1.600833 -0.64461,1.043013 -0.64462,1.043012 -8.10445,0.264002 -8.10444,0.264003 -0.26723,6.636212 -0.26724,6.636209 1.05576,1.27211 1.05575,1.272109 h 9.89127 9.89124 l -0.28598,2.485469 -0.28599,2.485473 -13.65344,0.248784 -13.65345,0.248807 z"
     style="fill:#ffffff;stroke-width:0.90380788;opacity:1" />
</svg>
